<?xml version="1.0" encoding="UTF-8" standalone="no"?>
<!-- Created with Inkscape (http://www.inkscape.org/) -->
<svg
   xmlns:dc="http://purl.org/dc/elements/1.1/"
   xmlns:cc="http://creativecommons.org/ns#"
   xmlns:rdf="http://www.w3.org/1999/02/22-rdf-syntax-ns#"
   xmlns:svg="http://www.w3.org/2000/svg"
   xmlns="http://www.w3.org/2000/svg"
   xmlns:sodipodi="http://sodipodi.sourceforge.net/DTD/sodipodi-0.dtd"
   xmlns:inkscape="http://www.inkscape.org/namespaces/inkscape"
   width="500"
   height="169.49001"
   id="svg2"
   sodipodi:version="0.32"
   inkscape:version="0.46"
   version="1.0"
   sodipodi:docname="Logo Air_China.svg"
   inkscape:output_extension="org.inkscape.output.svg.inkscape">
  <defs
     id="defs4">
    <inkscape:perspective
       sodipodi:type="inkscape:persp3d"
       inkscape:vp_x="0 : 526.18109 : 1"
       inkscape:vp_y="0 : 1000 : 0"
       inkscape:vp_z="744.09448 : 526.18109 : 1"
       inkscape:persp3d-origin="372.04724 : 350.78739 : 1"
       id="perspective10" />
    <inkscape:perspective
       id="perspective2457"
       inkscape:persp3d-origin="100 : 21.666667 : 1"
       inkscape:vp_z="200 : 32.5 : 1"
       inkscape:vp_y="0 : 1000 : 0"
       inkscape:vp_x="0 : 32.5 : 1"
       sodipodi:type="inkscape:persp3d" />
  </defs>
  <sodipodi:namedview
     id="base"
     pagecolor="#ffffff"
     bordercolor="#666666"
     borderopacity="1.0"
     inkscape:pageopacity="0.0"
     inkscape:pageshadow="2"
     inkscape:zoom="1.4"
     inkscape:cx="11.314729"
     inkscape:cy="128.66625"
     inkscape:document-units="px"
     inkscape:current-layer="layer1"
     showgrid="false"
     inkscape:window-width="1280"
     inkscape:window-height="750"
     inkscape:window-x="-8"
     inkscape:window-y="-8" />
  <metadata
     id="metadata7">
    <rdf:RDF>
      <cc:Work
         rdf:about="">
        <dc:format>image/svg+xml</dc:format>
        <dc:type
           rdf:resource="http://purl.org/dc/dcmitype/StillImage" />
      </cc:Work>
    </rdf:RDF>
  </metadata>
  <g
     inkscape:label="Ebene 1"
     inkscape:groupmode="layer"
     id="layer1"
     transform="translate(134.28572,-96.87403)">
    <g
       id="g2442"
       transform="matrix(2.4,0,0,2.4,-124.28572,103.61783)">
	<path
   id="path2444"
   d="M 78.49,18.175 L 74.871,18.175 C 74.871,18.175 72.783,18.694 73.512,16.364 L 73.821,14.943 C 74.136,13.261 76.71,13.648 76.71,13.648 L 79.555,13.648 L 78.49,18.175 M 74.4,9.381 C 74.4,9.381 70.249,9.64 69.408,15.332 L 66.799,30.722 L 71.458,30.722 L 72.915,22.185 L 77.318,22.185 L 75.985,30.722 L 80.642,30.722 L 84.749,9.381 L 74.4,9.381 z M 193.744,18.175 L 190.121,18.175 C 190.121,18.175 188.031,18.694 188.891,16.364 L 189.069,14.943 C 189.385,13.261 191.964,13.648 191.964,13.648 L 194.808,13.648 L 193.744,18.175 z M 189.781,9.381 C 189.781,9.381 185.502,9.64 184.793,15.332 L 182.18,30.722 L 186.705,30.722 L 188.174,22.185 L 192.697,22.185 L 191.367,30.722 L 196.025,30.722 L 200,9.381 L 189.781,9.381 z M 94.708,9.381 L 89.276,9.381 L 85.037,30.722 L 90.468,30.722 L 94.708,9.381 z M 164.299,9.381 L 158.348,9.381 L 154.244,30.722 L 160.064,30.722 L 164.299,9.381 z M 173,30.723 L 177.785,30.723 L 182.019,9.381 L 177.238,9.381 L 175.162,20.636 L 173.613,9.381 L 168.697,9.381 L 164.459,30.723 L 169.377,30.723 L 171.297,20.245 L 173,30.723 z M 148.65,9.381 L 147.093,16.882 L 143.861,16.882 L 145.414,9.381 L 139.98,9.381 L 135.746,30.722 L 141.178,30.722 L 143.069,21.02 L 146.303,21.02 L 144.41,30.722 L 149.848,30.722 L 154.082,9.381 L 148.65,9.381 z M 107.84,14.943 L 107.242,17.27 C 106.64,19.598 104.978,19.082 104.978,19.082 L 101.357,19.082 L 102.709,13.647 L 105.557,13.647 C 105.557,13.648 108.154,13.262 107.84,14.943 z M 109.195,9.381 L 98.98,9.381 L 94.35,30.722 L 99.012,30.722 L 100.827,23.093 L 101.86,23.22 L 103.669,30.722 L 108.583,30.722 L 106.9,23.22 C 106.9,23.22 110.531,23.093 111.228,17.789 L 111.83,15.332 C 113.324,9.64 109.195,9.381 109.195,9.381 z M 128.273,22.315 L 127.486,26.453 L 123.736,26.453 L 126.125,13.648 L 130.002,13.648 L 129.072,18.047 L 134.117,18.047 L 135.222,12.356 C 135.669,10.674 134.55,9.251 132.872,9.251 L 124.722,9.251 C 123.04,9.251 121.437,10.674 121.12,12.356 L 118.001,27.619 C 117.687,29.3 118.796,30.722 120.48,30.722 L 128.501,30.722 C 130.181,30.722 131.915,29.3 132.23,27.619 L 133.32,22.314 L 128.273,22.314 L 128.273,22.315 z M 190.736,41.232 C 190.142,41.232 189.648,40.166 189.947,39.632 C 191.72,37.923 193.498,36.534 195.865,35.683 C 197.345,35.468 198.14,37.074 197.943,38.456 C 197.345,44.327 197.642,49.876 197.148,55.642 C 197.148,56.173 196.857,57.564 196.064,57.031 C 195.082,55.961 194.287,54.576 193.498,53.189 C 194.287,53.189 194.781,54.255 195.568,54.255 C 195.865,54.255 196.064,53.933 196.064,53.72 C 196.064,48.493 195.865,43.474 196.064,38.243 C 196.064,37.923 195.568,37.389 195.082,37.606 C 193.797,38.776 192.805,39.631 191.721,41.02 C 191.523,41.021 190.934,41.232 190.736,41.232 z M 192.215,49.238 C 192.016,49.877 192.115,50.732 191.623,51.052 C 191.131,51.265 190.637,50.839 190.637,50.517 C 190.637,49.769 191.623,48.492 192.51,49.021 L 192.215,49.238 z M 193.797,47.316 C 192.51,46.459 191.522,48.492 190.44,49.238 C 190.247,49.238 189.948,49.238 189.948,49.021 C 189.649,48.171 190.247,47.636 190.44,47.103 C 190.934,46.249 191.721,46.249 192.51,45.716 C 193.006,45.071 192.807,44.327 193.006,43.474 C 193.006,43.474 192.906,43.156 192.807,42.939 C 192.215,42.408 190.737,42.087 190.737,42.623 C 190.247,45.394 189.157,48.172 189.454,50.945 C 189.454,51.265 189.649,51.799 189.948,52.011 C 190.737,52.333 191.522,51.798 192.216,52.011 C 192.808,52.333 193.798,52.011 194.091,51.478 C 194.288,50.626 194.288,49.876 194.288,49.021 C 194.09,48.492 194.09,47.637 193.797,47.316 z M 67.094,44.328 L 67.394,44.543 C 67.094,45.074 66.8,45.717 66.601,46.252 L 65.81,46.252 C 65.019,45.074 63.74,43.156 64.826,42.408 C 65.81,41.554 66.107,43.156 66.302,44.008 C 66.601,44.328 66.799,44.328 67.094,44.328 z M 73.015,43.156 C 71.142,43.474 71.926,41.021 72.225,39.847 C 72.421,38.777 74.496,38.458 74.99,39.847 C 75.284,41.232 74.296,42.941 73.015,43.156 z M 74.99,37.605 C 74.003,37.074 73.211,38.459 72.225,38.244 C 71.433,37.605 72.225,36.857 72.225,36.004 C 72.225,35.151 71.926,34.615 71.433,34.082 L 70.648,34.082 C 70.648,35.684 71.141,37.391 70.648,38.992 C 70.449,40.699 68.08,41.021 67.884,43.156 C 68.868,42.941 69.659,42.088 70.449,41.232 C 70.648,41.232 70.943,41.232 70.943,41.554 C 71.141,42.941 71.432,44.542 70.449,45.074 C 69.363,45.717 67.884,45.929 67.884,47.637 C 68.08,47.637 68.375,47.85 68.375,47.85 C 69.166,47.637 69.855,47.317 70.449,46.459 C 70.648,46.25 71.141,46.783 71.141,47.104 C 70.943,50.413 70.449,53.403 71.141,56.709 C 71.433,57.031 71.732,57.564 71.732,57.352 C 72.42,53.403 70.449,49.557 72.224,46.25 C 73.014,44.543 74.989,43.475 76.268,42.088 C 77.355,40.699 76.269,38.459 74.99,37.605 z M 86.829,52.652 C 87.323,52.439 87.815,52.652 88.112,52.013 C 88.112,52.333 88.308,52.333 88.606,52.333 L 88.606,53.187 C 87.815,53.72 86.829,53.72 86.04,54.576 C 85.253,55.109 85.051,53.933 85.051,53.402 C 85.05,52.867 86.04,52.867 86.829,52.652 z M 85.546,45.93 C 85.744,45.717 86.039,45.073 86.533,45.397 C 86.828,45.397 86.828,45.717 86.828,45.93 C 86.533,46.25 86.533,46.25 86.533,46.459 C 86.533,46.783 86.237,47.104 86.039,47.104 C 85.744,46.783 85.253,46.459 85.546,45.93 z M 90.383,44.008 C 90.383,41.553 91.366,39.313 91.663,36.858 C 90.383,35.684 88.803,36.004 87.517,36.858 C 84.758,38.993 84.758,42.622 82.981,45.717 C 82.685,45.93 82.491,45.717 82.491,45.397 C 82.189,44.008 82.585,42.727 82.981,41.233 C 83.178,40.167 82.685,39.313 81.893,38.993 C 81.696,44.329 82.491,49.557 82.189,54.788 C 82.491,54.788 82.685,54.788 82.685,55.11 C 83.769,51.799 81.696,48.172 83.769,45.073 L 84.758,45.073 C 85.743,45.718 84.758,46.784 85.05,47.637 C 85.05,47.85 85.252,47.85 85.545,47.85 C 85.743,47.637 85.743,47.637 86.038,47.637 C 86.236,47.637 86.532,47.85 86.236,48.172 C 85.743,48.703 85.545,49.022 85.252,49.557 C 85.05,49.877 84.758,49.557 84.758,49.237 C 84.459,49.557 84.459,50.092 84.264,50.626 L 84.758,50.626 C 85.743,49.878 86.039,48.704 86.828,47.638 L 87.323,47.638 C 88.11,48.704 87.027,49.878 86.532,50.626 C 87.026,50.626 87.026,50.413 87.323,50.093 C 87.814,49.558 88.11,50.947 88.604,50.413 C 88.604,50.093 88.11,49.558 88.11,49.237 C 88.307,48.493 88.11,47.317 88.803,46.784 C 88.604,46.784 88.604,46.46 88.604,46.251 C 88.11,46.251 87.323,46.251 87.027,45.718 C 87.027,44.542 87.027,43.689 86.828,42.943 C 86.237,41.554 86.039,44.009 85.051,44.543 C 84.459,44.865 83.77,44.543 83.969,43.689 C 84.459,42.623 85.051,41.554 85.546,40.382 C 86.533,38.993 87.517,37.927 89.099,37.392 C 89.593,37.074 90.084,37.392 90.382,37.927 C 90.675,39.849 90.382,41.554 90.084,43.476 C 89.884,44.009 88.802,43.476 88.604,43.689 C 88.604,44.009 88.11,44.33 88.307,44.865 C 88.803,45.398 89.393,44.865 89.593,44.543 C 89.885,44.33 90.084,44.543 90.084,44.865 C 90.382,48.705 90.382,52.869 90.382,56.711 C 90.675,57.565 91.662,58.098 91.662,57.354 C 92.159,52.867 90.676,48.492 90.383,44.008 z M 103.406,45.93 C 103.703,46.784 103.896,47.637 103.703,48.172 C 103.209,49.022 102.619,49.557 101.926,50.092 C 101.631,50.092 101.434,50.092 101.434,49.877 C 101.631,49.877 101.532,49.557 101.631,49.238 C 102.123,48.172 102.42,47.316 102.42,46.25 C 102.123,45.717 103.406,45.395 103.406,45.93 z M 107.057,45.717 C 107.057,44.543 106.762,43.69 107.256,42.623 C 108.043,41.555 107.057,40.379 107.057,38.992 C 107.057,38.244 106.467,37.924 106.27,37.607 C 103.209,37.074 102.124,41.232 100.842,43.474 C 100.64,44.328 100.349,44.863 100.156,45.716 C 99.855,47.316 99.855,49.021 99.066,50.411 C 98.573,49.02 98.869,47.315 98.869,45.929 C 99.066,44.007 99.066,42.408 99.562,40.378 C 99.358,40.378 99.066,39.312 99.066,40.165 C 98.277,43.474 98.573,46.458 98.081,49.876 C 98.081,50.626 98.081,51.798 98.87,52.653 C 99.563,50.411 100.157,47.848 100.641,45.393 C 100.641,45.073 100.843,44.862 101.141,44.862 C 101.633,44.862 102.125,45.073 102.125,45.393 C 102.125,46.248 102.125,47.315 101.928,48.17 C 101.436,49.02 101.141,49.555 100.641,50.41 C 100.35,50.943 100.843,51.264 100.843,51.476 L 101.435,51.476 C 102.124,50.624 102.621,49.554 103.408,49.554 C 103.898,49.236 103.898,50.409 103.705,50.943 C 102.918,52.332 101.633,52.332 100.641,53.187 C 100.35,53.398 100.641,53.718 100.843,53.718 C 101.927,53.718 102.918,53.398 103.898,52.864 C 103.898,52.651 103.408,52.01 103.408,51.796 C 103.705,51.263 104.197,51.263 104.691,51.796 C 104.494,50.624 104.197,49.554 104.494,48.491 C 104.691,48.169 104.986,47.634 104.986,47.1 C 104.494,47.1 103.898,46.78 103.898,46.455 C 103.898,45.391 104.494,44.324 103.898,43.152 L 103.21,43.152 C 102.62,44.004 102.421,44.859 101.632,44.859 C 101.435,44.859 100.842,44.539 101.14,44.004 C 102.124,42.404 102.62,40.375 104.197,39.309 C 104.691,38.989 105.48,39.309 105.974,39.844 C 106.763,41.229 106.763,42.405 106.468,43.686 C 106.271,44.325 105.185,44.004 105.48,44.86 C 105.779,45.071 105.974,45.714 106.271,45.926 C 106.468,49.235 107.058,52.33 107.058,55.317 C 107.058,55.639 107.558,55.639 107.558,55.639 C 107.748,52.334 106.467,49.021 107.057,45.717 z M 121.861,36.857 C 120.97,36.857 121.068,38.457 120.58,38.992 C 119.789,37.605 121.369,36.857 121.369,35.469 C 121.564,35.469 121.861,35.469 121.861,35.151 C 122.351,36.005 123.439,35.684 123.439,36.219 C 123.63,37.391 123.439,38.457 122.847,39.633 C 122.351,41.553 121.564,43.475 120.579,45.395 C 120.276,46.25 120.085,47.637 119.093,47.637 C 118.507,47.317 118.31,46.459 118.507,45.93 C 119.294,44.328 120.085,42.94 120.579,41.233 C 120.276,42.624 119.788,44.008 119.093,45.395 C 119.093,45.717 119.093,46.25 119.294,46.25 C 121.368,44.008 122.651,40.379 122.651,37.072 C 122.652,36.857 122.154,36.857 121.861,36.857 z M 127.287,36.857 C 127.287,37.177 126.99,37.605 126.695,37.923 C 126.203,38.456 124.918,38.777 125.213,39.312 C 125.412,40.701 127.287,41.552 128.768,41.552 C 129.262,41.552 129.557,42.407 129.262,42.939 L 128.768,42.939 C 128.27,42.408 127.778,42.087 126.991,42.087 C 126.204,41.767 125.71,40.7 124.919,40.165 C 124.427,39.847 123.442,40.378 123.632,39.847 C 123.632,38.992 124.919,38.777 125.413,37.923 C 125.71,37.39 125.214,37.071 124.919,36.857 C 124.724,36.003 125.413,35.468 125.413,34.615 C 125.413,34.299 125.71,34.082 126.005,34.299 C 126.499,34.83 126.696,35.684 127.288,36.219 L 127.288,36.857 L 127.287,36.857 z M 117.814,37.924 C 117.814,38.778 117.515,38.992 117.021,39.633 C 116.73,39.848 116.232,39.848 115.941,39.848 C 115.447,39.633 115.738,38.993 115.738,38.778 C 115.941,37.391 117.218,36.005 118.508,37.073 C 118.311,37.391 117.814,37.605 117.814,37.924 z M 117.219,42.939 C 116.731,43.156 116.233,42.623 116.233,42.408 C 116.536,41.767 116.731,41.232 117.219,41.019 C 117.516,41.019 117.815,41.019 117.815,41.232 C 117.814,41.768 117.814,42.623 117.219,42.939 z M 118.012,39.313 C 118.508,38.245 119.594,37.391 119.295,36.219 C 119.295,35.469 118.012,36.004 117.516,36.004 C 116.731,36.535 116.037,37.178 114.952,37.924 C 114.161,38.457 112.88,38.778 113.372,40.166 C 113.675,40.701 114.659,40.379 114.952,39.848 C 115.448,40.166 115.942,40.379 116.233,41.02 L 116.233,41.553 C 115.942,42.088 115.247,42.088 115.448,42.94 C 115.942,43.475 116.233,44.008 115.942,44.542 C 115.942,46.251 116.233,47.638 116.233,49.239 C 115.942,51.479 115.739,53.401 115.739,55.643 C 115.739,55.961 115.942,56.495 116.536,56.711 C 117.022,52.654 115.739,48.492 116.731,44.328 C 117.022,43.689 118.012,43.474 118.508,42.939 C 118.803,42.623 118.311,42.087 118.803,41.767 C 118.311,41.02 117.814,40.166 118.012,39.313 z M 122.848,45.93 C 122.653,45.93 122.35,45.717 122.653,45.395 C 123.141,45.073 123.141,44.008 123.934,44.008 C 124.127,44.008 124.127,44.328 124.426,44.541 C 123.934,45.072 123.631,45.93 122.848,45.93 z M 123.141,52.012 C 122.35,52.012 122.153,50.625 123.141,50.092 L 123.631,50.092 C 123.934,50.092 123.834,50.412 123.934,50.625 C 124.127,51.479 123.631,52.334 123.141,52.012 z M 127.484,49.877 C 126.99,48.705 125.412,49.238 124.92,48.705 C 123.631,47.637 124.92,45.93 125.412,44.541 C 125.412,44.328 124.82,44.541 124.721,44.328 C 124.127,43.156 123.442,42.408 122.653,43.474 C 122.653,43.474 123.141,43.689 123.141,44.007 C 123.442,44.862 122.35,45.394 121.862,45.929 C 121.565,46.249 121.862,47.103 122.153,47.316 C 122.653,47.636 122.848,46.459 123.442,46.25 C 123.631,46.25 123.934,46.25 123.934,46.459 C 124.127,47.637 124.426,48.705 123.442,49.557 C 122.848,49.877 122.35,50.092 121.565,50.092 C 121.071,50.412 121.368,50.946 121.368,51.266 C 122.153,52.655 123.442,53.19 123.934,54.577 L 124.426,54.577 C 124.426,53.19 124.721,51.8 124.426,50.093 C 124.426,49.558 124.92,49.023 125.709,49.239 C 126.498,49.878 126.201,50.946 126.99,51.479 L 127.484,51.479 C 128.27,50.945 127.484,50.412 127.484,49.877 z M 145.445,40.381 C 145.246,40.274 145.246,40.166 145.047,40.166 C 144.75,40.166 144.359,39.848 144.16,39.848 C 143.865,38.244 145.144,36.86 146.428,37.926 C 146.924,38.78 147.219,39.848 146.131,40.699 C 145.939,40.699 145.645,40.699 145.445,40.381 z M 140.408,44.008 C 140.111,44.756 140.904,45.072 140.211,45.289 C 139.424,45.607 139.719,44.863 139.227,44.541 C 140.014,43.689 139.719,42.408 140.506,41.768 C 140.807,41.768 141.301,42.409 140.807,42.94 C 140.506,43.156 140.408,43.793 140.408,44.008 z M 139.521,45.93 C 139.226,46.459 139.521,47.85 138.537,47.317 C 138.141,46.891 138.043,45.825 138.734,45.073 C 139.029,45.072 139.621,45.717 139.521,45.93 z M 148.895,51.373 C 148.801,51.16 148.702,50.412 148.702,50.092 C 148.702,49.877 148.206,49.877 148.206,49.877 C 148.007,50.945 148.601,53.721 147.22,52.652 C 145.54,51.373 146.331,48.172 146.829,45.929 C 146.829,45.716 146.132,45.716 145.94,45.716 C 145.643,45.929 144.657,46.458 144.95,45.929 C 144.95,44.54 146.132,43.689 146.925,42.62 L 146.925,41.766 C 146.925,41.551 146.73,41.551 146.429,41.551 C 144.95,42.938 143.665,43.688 141.792,44.862 C 141.792,44.862 141.792,45.395 141.601,45.395 L 141.101,45.395 C 140.808,45.071 140.808,44.862 140.808,44.54 C 141.302,43.474 141.792,42.62 141.601,41.552 C 141.302,41.019 141.101,39.847 140.312,40.378 C 139.523,41.552 139.826,43.474 138.539,44.327 C 138.242,44.327 138.242,44.007 138.242,44.007 C 138.638,42.62 138.242,42.726 138.736,41.659 C 138.736,41.339 138.931,41.124 138.832,40.485 L 138.736,40.059 C 138.638,39.524 138.832,39.631 138.832,39.416 C 139.129,39.098 138.932,38.99 139.228,38.775 C 140.015,38.242 140.507,37.388 141.302,36.855 C 141.101,36.855 141.101,36.533 141.101,36.216 C 140.507,36.216 140.312,35.681 140.015,35.681 C 139.031,36.216 138.242,37.603 137.945,38.99 C 137.748,42.086 137.945,44.861 137.453,47.847 C 137.252,48.701 135.676,48.701 134.889,49.234 C 134.69,49.234 134.889,50.41 135.676,50.41 L 136.467,49.555 C 136.76,49.555 137.252,49.555 137.252,49.875 C 137.252,51.477 135.973,52.865 136.17,54.572 C 136.17,54.572 136.959,54.463 136.959,54.144 C 137.154,52.226 137.549,50.302 138.045,48.38 C 138.34,48.062 138.242,47.847 138.539,47.634 C 138.736,47.634 138.736,47.847 139.031,48.169 C 139.228,48.7 137.748,49.13 138.832,49.448 C 139.031,49.553 139.228,48.7 139.523,48.489 C 139.826,48.489 140.015,48.489 140.015,48.7 C 140.312,50.409 139.228,51.475 139.523,53.186 C 139.826,53.717 140.015,54.252 140.015,54.784 L 140.507,54.784 L 140.312,54.571 C 140.312,54.253 140.808,54.04 140.808,54.04 C 139.72,51.796 140.507,49.554 140.507,47.419 C 140.507,46.565 141.499,46.034 142.091,45.714 C 142.777,45.714 143.566,44.86 144.362,44.644 C 144.657,44.644 144.362,45.07 144.362,45.394 C 143.866,46.781 143.665,48.169 143.079,49.554 C 142.587,51.263 142.186,52.759 142.384,54.462 C 142.384,54.462 142.98,54.462 142.98,54.144 C 142.777,52.226 143.769,50.623 144.064,48.915 C 144.263,48.38 144.658,47.313 145.148,47.101 C 145.447,47.101 145.644,47.101 145.644,47.314 C 145.644,49.234 145.447,50.623 145.644,52.65 C 145.941,53.398 146.73,53.718 147.417,53.931 C 147.714,53.931 147.616,54.144 148.007,54.04 C 148.501,54.144 148.501,53.931 148.702,53.931 C 149.781,53.4 149.492,52.117 148.895,51.373 z M 154.619,45.396 C 154.42,45.396 154.125,45.396 154.125,45.074 C 153.633,42.941 154.916,41.554 156.396,40.381 C 156.396,41.555 156.199,42.621 155.412,43.154 C 155.609,43.474 155.902,43.687 155.902,43.687 C 158.47,41.554 160.535,38.779 163.597,38.779 C 165.376,38.459 168.435,41.021 166.954,42.621 C 166.362,43.154 164.882,42.941 163.796,42.941 C 164.095,42.087 165.079,41.769 165.669,41.232 L 165.669,40.699 C 164.587,39.633 163.304,39.312 162.021,39.847 C 160.535,40.699 158.962,42.087 157.478,42.941 C 156.396,43.474 156.396,45.074 155.412,45.716 C 155.115,45.717 154.916,45.396 154.619,45.396 z M 160.736,37.926 C 159.849,37.606 159.257,36.004 160.244,35.684 C 160.736,35.471 161.035,36.219 161.529,36.86 C 161.828,37.393 161.529,38.244 160.736,37.926 z M 161.035,44.008 C 161.035,44.863 160.537,45.717 160.047,45.397 C 158.963,45.397 158.471,46.46 157.479,46.251 C 157.678,46.251 157.678,45.931 157.678,45.718 L 158.174,45.718 C 158.766,44.864 159.258,44.329 159.75,43.476 C 159.75,43.158 159.75,42.943 159.455,42.943 C 159.75,42.943 159.75,42.623 159.75,42.41 C 160.537,42.621 161.035,42.941 161.035,44.008 z M 162.611,44.328 C 162.119,43.902 161.828,42.941 162.316,42.941 C 162.808,42.621 163.105,43.474 163.597,44.007 C 163.304,44.007 163.304,44.327 163.304,44.542 C 163.105,44.543 162.809,44.543 162.611,44.328 z M 162.021,48.172 C 161.828,49.024 162.021,49.877 161.529,50.625 C 161.035,51.266 160.047,51.48 160.244,52.014 C 160.244,52.868 161.336,51.799 162.021,51.799 C 162.316,51.799 162.611,52.014 162.611,52.334 C 162.808,53.188 162.611,53.934 161.828,54.256 C 160.537,54.256 158.963,54.576 157.678,54.256 C 157.977,53.721 156.885,52.867 157.678,52.652 C 158.471,52.652 159.256,52.013 159.256,51.265 C 159.455,51.265 159.75,51.265 159.75,50.945 C 160.047,50.091 160.736,49.236 160.047,48.705 C 159.75,48.705 159.256,48.492 158.963,48.492 C 159.75,47.849 160.537,47.637 161.336,47.103 C 161.828,47.104 162.316,47.316 162.021,48.172 z M 173.863,46.25 C 173.564,46.459 173.273,46.783 173.072,47.104 C 173.072,46.25 173.564,45.93 174.058,45.395 C 174.851,43.69 175.148,41.555 176.425,40.166 C 176.622,39.848 177.413,39.848 177.911,40.166 C 178.698,40.701 178.698,41.555 178.403,42.408 C 178.206,42.623 177.911,42.939 177.413,42.939 C 176.622,43.474 176.425,44.543 175.64,45.394 C 175.148,45.717 174.355,45.717 173.863,46.25 z M 177.215,52.439 C 178.207,52.439 178.992,51.265 179.682,50.412 L 179.682,49.877 C 179.981,49.877 180.274,49.238 180.77,49.557 C 181.463,50.092 181.463,50.946 182.053,51.479 C 182.252,52.334 182.053,53.401 180.969,53.401 C 180.274,53.19 180.77,52.012 179.981,51.799 C 179.682,51.799 179.588,52.012 179.391,52.012 C 178.108,52.867 177.313,54.787 175.741,54.256 C 175.741,54.256 175.345,53.19 175.641,52.867 C 175.832,52.334 176.129,52.012 176.129,51.478 C 176.92,50.412 177.414,49.238 178.207,48.492 C 178.992,47.316 178.992,45.072 180.471,45.072 C 180.77,45.072 180.969,45.502 180.969,45.824 C 180.371,46.355 179.682,45.824 179.391,46.678 C 179.094,47.213 180.178,46.996 179.883,47.532 C 178.891,49.239 177.613,50.305 176.822,52.012 C 176.529,52.547 176.92,52.439 177.215,52.439 z M 181.758,42.621 C 181.463,42.621 181.266,42.621 181.266,42.408 C 181.266,41.554 181.266,40.699 181.758,39.847 C 182.053,40.38 182.74,40.38 183.035,41.021 C 183.336,41.767 182.74,42.621 182.252,42.941 C 182.252,42.941 182.053,42.621 181.758,42.621 z"
   clip-rule="evenodd"
   style="fill-rule:evenodd" />

	<path
   id="path2446"
   d="M 1.928,23.908 C 3.43,23.814 4.659,24.879 4.931,26.272 L 4.931,44.742 C 4.898,49.976 9.112,54.195 14.363,54.191 C 19.501,54.195 23.711,49.976 23.794,44.742 L 23.794,31.425 C 23.696,21.277 31.906,13.053 42.018,12.957 C 49.16,12.906 55.005,8.03 56.596,1.357 C 52.927,4.152 48.258,5.918 43.304,5.869 C 42.321,5.918 42.425,5.975 41.588,5.869 L 41.802,5.869 C 27.605,5.869 16.361,17.218 16.292,31.425 L 16.292,43.883 L 16.292,43.67 C 16.285,43.768 16.285,43.772 16.292,43.883 C 16.285,45.149 15.177,46.26 13.721,46.246 C 12.445,46.26 11.334,45.148 11.362,43.883 C 11.335,43.774 11.335,43.768 11.362,43.67 L 11.362,26.486 C 11.335,24.752 10.011,23.421 8.362,23.479 C 8.502,22.496 9.333,21.757 10.293,21.76 C 10.652,21.757 10.952,21.831 11.151,21.976 C 11.567,22.072 12.033,22.144 12.437,22.19 C 15.124,22.144 17.236,20.028 17.153,17.464 C 17.236,17.363 17.234,17.308 17.153,17.251 C 16.152,18.618 14.441,19.526 12.437,19.613 C 12.187,19.435 11.702,19.439 11.363,19.398 C 9.15,19.439 7.368,21.221 7.291,23.479 L 0,23.479 L 0,23.908 L 2.146,23.908 L 1.928,23.908"
   clip-rule="evenodd"
   style="fill:#ed1c24;fill-rule:evenodd" />

	<path
   id="path2448"
   d="M 42.018,21.546 C 36.558,21.496 32.123,25.941 32.156,31.425 L 32.156,31.212 L 32.156,46.676 C 32.117,54.297 26.048,60.426 18.436,60.422 C 13.157,60.426 8.53,57.354 6.217,52.904 C 8.295,54.89 11.15,56.177 14.363,56.125 C 20.594,56.178 25.694,51.068 25.726,44.742 L 25.726,31.425 C 25.702,22.388 33.015,15.065 42.018,15.102 L 41.588,15.102 C 46.427,15.064 50.801,13.085 54.022,9.946 C 53.515,16.382 48.131,21.496 41.588,21.546 L 42.018,21.546"
   clip-rule="evenodd"
   style="fill:#ed1c24;fill-rule:evenodd" />

	<path
   id="path2450"
   d="M 39.659,35.936 C 39.587,34.489 40.679,33.393 42.016,33.36 C 43.382,33.393 44.474,34.489 44.373,35.936 C 44.474,36.137 44.422,36.42 44.373,36.581 C 44.24,37.081 43.754,37.505 43.09,37.442 C 42.521,37.505 41.994,36.975 42.016,36.368 C 41.994,36.161 42.024,36.007 42.016,35.936 L 42.016,35.723 C 41.868,36.289 41.768,36.799 41.801,37.225 C 41.768,39.696 43.686,41.616 46.09,41.52 C 47.765,41.616 49.244,40.604 49.95,39.161 C 50.536,38.063 50.893,36.747 50.805,35.294 C 50.892,30.723 47.143,26.964 42.448,26.917 C 37.879,26.964 34.128,30.723 34.085,35.294 L 34.085,46.677 C 34.085,55.361 27.107,62.351 18.435,62.357 C 17.285,62.351 16.099,62.212 15.006,61.927 L 14.792,61.927 C 16.974,62.962 19.521,63.575 22.297,63.644 C 31.782,63.576 39.541,55.802 39.445,46.248 L 39.445,35.723 L 39.659,35.936"
   style="fill:#ed1c24" />

</g>
  </g>
</svg>
